<?xml version="1.0" standalone="no"?>
<!DOCTYPE svg PUBLIC "-//W3C//DTD SVG 20010904//EN"
 "http://www.w3.org/TR/2001/REC-SVG-20010904/DTD/svg10.dtd">
<svg version="1.0" xmlns="http://www.w3.org/2000/svg"
 width="300.000000pt" height="300.000000pt" viewBox="0 0 300.000000 300.000000"
 preserveAspectRatio="xMidYMid meet">
<metadata>
Created by potrace 1.11, written by Peter Selinger 2001-2013
</metadata>
<g transform="translate(0.000000,300.000000) scale(0.100000,-0.100000)"
fill="#000000" stroke="none">
<path d="M1310 2250 c-13 -13 -20 -33 -20 -60 0 -35 -3 -40 -27 -46 -39 -10
-50 -23 -45 -56 3 -20 -1 -30 -14 -35 -53 -19 -154 -113 -201 -186 -64 -99
-87 -191 -87 -337 1 -115 10 -198 34 -305 11 -49 23 -101 25 -115 5 -22 20
-77 45 -165 4 -16 16 -64 25 -105 15 -68 20 -78 60 -110 24 -19 53 -47 64 -61
l20 -27 -69 -52 c-67 -49 -82 -56 -141 -65 -46 -7 -163 -58 -214 -94 -78 -55
-205 -189 -205 -217 0 -8 -5 -14 -12 -14 -6 0 -8 -3 -5 -7 4 -3 1 -13 -6 -22
-13 -15 -47 -113 -54 -154 -3 -16 58 -17 1199 -15 l1203 3 -2 40 c-1 42 -12
160 -17 185 -1 8 -6 35 -10 60 -11 69 -12 73 -24 103 -7 16 -12 33 -12 38 0
20 -41 89 -70 119 -17 17 -56 43 -87 57 -48 22 -73 27 -172 29 -64 2 -134 -1
-155 -6 -38 -8 -42 -7 -81 33 -65 67 -138 97 -277 113 -60 7 -69 12 -48 24 16
9 18 79 5 180 -14 114 -18 181 -20 409 -2 135 -6 272 -9 306 -12 126 -60 239
-134 317 -56 59 -111 91 -193 112 -34 8 -66 21 -70 28 -4 7 -20 13 -36 14 -15
1 -32 3 -36 3 -5 1 -6 4 -3 9 9 16 -24 73 -49 82 -38 14 -53 12 -75 -10z"/>
</g>
</svg>
